<svg width="280" height="40" viewBox="0 0 280 40" fill="none" xmlns="http://www.w3.org/2000/svg">
<path d="M23.6094 15.0234H13.7422V11.5781C13.7422 9.40625 13.6484 8.04688 13.4609 7.5C13.2734 6.95312 12.8281 6.67969 12.125 6.67969C11.5156 6.67969 11.1016 6.91406 10.8828 7.38281C10.6641 7.85156 10.5547 9.05469 10.5547 10.9922V29.2031C10.5547 30.9062 10.6641 32.0312 10.8828 32.5781C11.1016 33.1094 11.5391 33.375 12.1953 33.375C12.9141 33.375 13.3984 33.0703 13.6484 32.4609C13.9141 31.8516 14.0469 30.6641 14.0469 28.8984V24.3984H12.0547V18.6328H23.6094V39H17.3984L16.4844 36.2812C15.8125 37.4531 14.9609 38.3359 13.9297 38.9297C12.9141 39.5078 11.7109 39.7969 10.3203 39.7969C8.66406 39.7969 7.10938 39.3984 5.65625 38.6016C4.21875 37.7891 3.125 36.7891 2.375 35.6016C1.625 34.4141 1.15625 33.1719 0.96875 31.875C0.78125 30.5625 0.6875 28.6016 0.6875 25.9922V14.7188C0.6875 11.0938 0.882812 8.46094 1.27344 6.82031C1.66406 5.17969 2.78125 3.67969 4.625 2.32031C6.48438 0.945312 8.88281 0.257812 11.8203 0.257812C14.7109 0.257812 17.1094 0.851562 19.0156 2.03906C20.9219 3.22656 22.1641 4.64062 22.7422 6.28125C23.3203 7.90625 23.6094 10.2734 23.6094 13.3828V15.0234ZM48.8516 7.89844V39H39.2188L39.3828 36.4219C38.7266 37.4688 37.9141 38.2578 36.9453 38.7891C35.9922 39.3047 34.8906 39.5625 33.6406 39.5625C32.2188 39.5625 31.0391 39.3125 30.1016 38.8125C29.1641 38.3125 28.4688 37.6484 28.0156 36.8203C27.5781 35.9922 27.3047 35.1328 27.1953 34.2422C27.0859 33.3359 27.0312 31.5469 27.0312 28.875V7.89844H36.5V29.0625C36.5 31.4844 36.5703 32.9219 36.7109 33.375C36.8672 33.8281 37.2734 34.0547 37.9297 34.0547C38.6328 34.0547 39.0469 33.8203 39.1719 33.3516C39.3125 32.8828 39.3828 31.375 39.3828 28.8281V7.89844H48.8516ZM71.5859 17.8359H63.1953V16.1484C63.1953 14.7109 63.1094 13.8047 62.9375 13.4297C62.7812 13.0391 62.375 12.8438 61.7188 12.8438C61.1875 12.8438 60.7891 13.0234 60.5234 13.3828C60.2578 13.7266 60.125 14.25 60.125 14.9531C60.125 15.9062 60.1875 16.6094 60.3125 17.0625C60.4531 17.5 60.8516 17.9844 61.5078 18.5156C62.1797 19.0469 63.5469 19.8203 65.6094 20.8359C68.3594 22.1797 70.1641 23.4453 71.0234 24.6328C71.8828 25.8203 72.3125 27.5469 72.3125 29.8125C72.3125 32.3438 71.9844 34.2578 71.3281 35.5547C70.6719 36.8359 69.5703 37.8281 68.0234 38.5312C66.4922 39.2188 64.6406 39.5625 62.4688 39.5625C60.0625 39.5625 58 39.1875 56.2812 38.4375C54.5781 37.6875 53.4062 36.6719 52.7656 35.3906C52.125 34.1094 51.8047 32.1719 51.8047 29.5781V28.0781H60.1953V30.0469C60.1953 31.7188 60.2969 32.8047 60.5 33.3047C60.7188 33.8047 61.1406 34.0547 61.7656 34.0547C62.4375 34.0547 62.9062 33.8906 63.1719 33.5625C63.4375 33.2188 63.5703 32.5078 63.5703 31.4297C63.5703 29.9453 63.3984 29.0156 63.0547 28.6406C62.6953 28.2656 60.8594 27.1562 57.5469 25.3125C54.7656 23.75 53.0703 22.3359 52.4609 21.0703C51.8516 19.7891 51.5469 18.2734 51.5469 16.5234C51.5469 14.0391 51.875 12.2109 52.5312 11.0391C53.1875 9.85156 54.2969 8.9375 55.8594 8.29688C57.4375 7.65625 59.2656 7.33594 61.3438 7.33594C63.4062 7.33594 65.1562 7.60156 66.5938 8.13281C68.0469 8.64844 69.1562 9.33594 69.9219 10.1953C70.7031 11.0547 71.1719 11.8516 71.3281 12.5859C71.5 13.3203 71.5859 14.4688 71.5859 16.0312V17.8359ZM97.7656 15.0234H87.8984V11.5781C87.8984 9.40625 87.8047 8.04688 87.6172 7.5C87.4297 6.95312 86.9844 6.67969 86.2812 6.67969C85.6719 6.67969 85.2578 6.91406 85.0391 7.38281C84.8203 7.85156 84.7109 9.05469 84.7109 10.9922V29.2031C84.7109 30.9062 84.8203 32.0312 85.0391 32.5781C85.2578 33.1094 85.6953 33.375 86.3516 33.375C87.0703 33.375 87.5547 33.0703 87.8047 32.4609C88.0703 31.8516 88.2031 30.6641 88.2031 28.8984V24.3984H86.2109V18.6328H97.7656V39H91.5547L90.6406 36.2812C89.9688 37.4531 89.1172 38.3359 88.0859 38.9297C87.0703 39.5078 85.8672 39.7969 84.4766 39.7969C82.8203 39.7969 81.2656 39.3984 79.8125 38.6016C78.375 37.7891 77.2812 36.7891 76.5312 35.6016C75.7812 34.4141 75.3125 33.1719 75.125 31.875C74.9375 30.5625 74.8438 28.6016 74.8438 25.9922V14.7188C74.8438 11.0938 75.0391 8.46094 75.4297 6.82031C75.8203 5.17969 76.9375 3.67969 78.7812 2.32031C80.6406 0.945312 83.0391 0.257812 85.9766 0.257812C88.8672 0.257812 91.2656 0.851562 93.1719 2.03906C95.0781 3.22656 96.3203 4.64062 96.8984 6.28125C97.4766 7.90625 97.7656 10.2734 97.7656 13.3828V15.0234ZM111.078 1.05469V6H101.328V1.05469H111.078ZM111.078 7.89844V39H101.328V7.89844H111.078ZM136.039 1.05469V39H126.57V36.75C125.664 37.6875 124.711 38.3906 123.711 38.8594C122.711 39.3281 121.664 39.5625 120.57 39.5625C119.102 39.5625 117.828 39.1797 116.75 38.4141C115.672 37.6328 114.977 36.7344 114.664 35.7188C114.367 34.7031 114.219 33.0469 114.219 30.75V16.1953C114.219 13.8047 114.367 12.1094 114.664 11.1094C114.977 10.1094 115.68 9.23438 116.773 8.48438C117.867 7.71875 119.172 7.33594 120.688 7.33594C121.859 7.33594 122.93 7.54688 123.898 7.96875C124.883 8.39062 125.773 9.02344 126.57 9.86719V1.05469H136.039ZM126.57 15.7266C126.57 14.5859 126.469 13.8203 126.266 13.4297C126.078 13.0391 125.695 12.8438 125.117 12.8438C124.555 12.8438 124.172 13.0234 123.969 13.3828C123.781 13.7266 123.688 14.5078 123.688 15.7266V30.9609C123.688 32.2266 123.781 33.0625 123.969 33.4688C124.156 33.8594 124.516 34.0547 125.047 34.0547C125.656 34.0547 126.062 33.8359 126.266 33.3984C126.469 32.9453 126.57 31.8516 126.57 30.1172V15.7266ZM148.906 7.89844L148.531 11.9766C149.906 9.05469 151.898 7.50781 154.508 7.33594V18.2812C152.773 18.2812 151.5 18.5156 150.688 18.9844C149.875 19.4531 149.375 20.1094 149.188 20.9531C149 21.7812 148.906 23.7031 148.906 26.7188V39H139.438V7.89844H148.906ZM165.102 19.9453H156.219V17.8594C156.219 15.4531 156.492 13.6016 157.039 12.3047C157.602 10.9922 158.719 9.83594 160.391 8.83594C162.062 7.83594 164.234 7.33594 166.906 7.33594C170.109 7.33594 172.523 7.90625 174.148 9.04688C175.773 10.1719 176.75 11.5625 177.078 13.2188C177.406 14.8594 177.57 18.25 177.57 23.3906V39H168.359V36.2344C167.781 37.3438 167.031 38.1797 166.109 38.7422C165.203 39.2891 164.117 39.5625 162.852 39.5625C161.195 39.5625 159.672 39.1016 158.281 38.1797C156.906 37.2422 156.219 35.2031 156.219 32.0625V29.5078C156.219 27.1797 156.586 25.5938 157.32 24.75C158.055 23.9062 159.875 22.9219 162.781 21.7969C165.891 20.5781 167.555 19.7578 167.773 19.3359C167.992 18.9141 168.102 18.0547 168.102 16.7578C168.102 15.1328 167.977 14.0781 167.727 13.5938C167.492 13.0938 167.094 12.8438 166.531 12.8438C165.891 12.8438 165.492 13.0547 165.336 13.4766C165.18 13.8828 165.102 14.9531 165.102 16.6875V19.9453ZM168.102 24.2109C166.586 25.3203 165.703 26.25 165.453 27C165.219 27.75 165.102 28.8281 165.102 30.2344C165.102 31.8438 165.203 32.8828 165.406 33.3516C165.625 33.8203 166.047 34.0547 166.672 34.0547C167.266 34.0547 167.648 33.875 167.82 33.5156C168.008 33.1406 168.102 32.1719 168.102 30.6094V24.2109ZM204.148 17.6016H194.281V10.9922C194.281 9.07031 194.172 7.875 193.953 7.40625C193.75 6.92188 193.289 6.67969 192.57 6.67969C191.758 6.67969 191.242 6.96875 191.023 7.54688C190.805 8.125 190.695 9.375 190.695 11.2969V28.9219C190.695 30.7656 190.805 31.9688 191.023 32.5312C191.242 33.0938 191.734 33.375 192.5 33.375C193.234 33.375 193.711 33.0938 193.93 32.5312C194.164 31.9688 194.281 30.6484 194.281 28.5703V23.8125H204.148V25.2891C204.148 29.2109 203.867 31.9922 203.305 33.6328C202.758 35.2734 201.531 36.7109 199.625 37.9453C197.734 39.1797 195.398 39.7969 192.617 39.7969C189.727 39.7969 187.344 39.2734 185.469 38.2266C183.594 37.1797 182.352 35.7344 181.742 33.8906C181.133 32.0312 180.828 29.2422 180.828 25.5234V14.4375C180.828 11.7031 180.922 9.65625 181.109 8.29688C181.297 6.92188 181.852 5.60156 182.773 4.33594C183.711 3.07031 185 2.07813 186.641 1.35938C188.297 0.625 190.195 0.257812 192.336 0.257812C195.242 0.257812 197.641 0.820312 199.531 1.94531C201.422 3.07031 202.664 4.47656 203.258 6.16406C203.852 7.83594 204.148 10.4453 204.148 13.9922V17.6016ZM216.875 7.89844L216.5 11.9766C217.875 9.05469 219.867 7.50781 222.477 7.33594V18.2812C220.742 18.2812 219.469 18.5156 218.656 18.9844C217.844 19.4531 217.344 20.1094 217.156 20.9531C216.969 21.7812 216.875 23.7031 216.875 26.7188V39H207.406V7.89844H216.875ZM246.055 24H233.797V30.7266C233.797 32.1328 233.898 33.0391 234.102 33.4453C234.305 33.8516 234.695 34.0547 235.273 34.0547C235.992 34.0547 236.469 33.7891 236.703 33.2578C236.953 32.7109 237.078 31.6641 237.078 30.1172V26.0156H246.055V28.3125C246.055 30.2344 245.93 31.7109 245.68 32.7422C245.445 33.7734 244.883 34.875 243.992 36.0469C243.102 37.2188 241.969 38.1016 240.594 38.6953C239.234 39.2734 237.523 39.5625 235.461 39.5625C233.461 39.5625 231.695 39.2734 230.164 38.6953C228.633 38.1172 227.438 37.3281 226.578 36.3281C225.734 35.3125 225.148 34.2031 224.82 33C224.492 31.7812 224.328 30.0156 224.328 27.7031V18.6328C224.328 15.9141 224.695 13.7734 225.43 12.2109C226.164 10.6328 227.367 9.42969 229.039 8.60156C230.711 7.75781 232.633 7.33594 234.805 7.33594C237.461 7.33594 239.648 7.84375 241.367 8.85938C243.102 9.85938 244.312 11.1953 245 12.8672C245.703 14.5234 246.055 16.8594 246.055 19.875V24ZM236.562 18.9375V16.6641C236.562 15.0547 236.477 14.0156 236.305 13.5469C236.133 13.0781 235.781 12.8438 235.25 12.8438C234.594 12.8438 234.188 13.0469 234.031 13.4531C233.875 13.8438 233.797 14.9141 233.797 16.6641V18.9375H236.562ZM279.758 7.89844L275.984 39H265.695C265.133 35.2031 264.484 30.2031 263.75 24C263.5 26.7188 263.148 29.4688 262.695 32.25L261.641 39H251.352L247.344 7.89844H255.5C255.562 8.71094 256.25 14.6406 257.562 25.6875C257.656 24.5625 258.359 18.6328 259.672 7.89844H267.523L269.445 25.6875C269.742 20.5 270.461 14.5703 271.602 7.89844H279.758Z" fill="white"/>
</svg>
