<svg width="175" height="26" viewBox="0 0 175 26" fill="none" xmlns="http://www.w3.org/2000/svg">
<path d="M14.3809 10.0146H8.21387V7.86133C8.21387 6.50391 8.15527 5.6543 8.03809 5.3125C7.9209 4.9707 7.64258 4.7998 7.20312 4.7998C6.82227 4.7998 6.56348 4.94629 6.42676 5.23926C6.29004 5.53223 6.22168 6.28418 6.22168 7.49512V18.877C6.22168 19.9414 6.29004 20.6445 6.42676 20.9863C6.56348 21.3184 6.83691 21.4844 7.24707 21.4844C7.69629 21.4844 7.99902 21.2939 8.15527 20.9131C8.32129 20.5322 8.4043 19.79 8.4043 18.6865V15.874H7.15918V12.2705H14.3809V25H10.499L9.92773 23.3008C9.50781 24.0332 8.97559 24.585 8.33105 24.9561C7.69629 25.3174 6.94434 25.498 6.0752 25.498C5.04004 25.498 4.06836 25.249 3.16016 24.751C2.26172 24.2432 1.57812 23.6182 1.10938 22.876C0.640625 22.1338 0.347656 21.3574 0.230469 20.5469C0.113281 19.7266 0.0546875 18.501 0.0546875 16.8701V9.82422C0.0546875 7.55859 0.176758 5.91309 0.420898 4.8877C0.665039 3.8623 1.36328 2.9248 2.51562 2.0752C3.67773 1.21582 5.17676 0.786133 7.0127 0.786133C8.81934 0.786133 10.3184 1.15723 11.5098 1.89941C12.7012 2.6416 13.4775 3.52539 13.8389 4.55078C14.2002 5.56641 14.3809 7.0459 14.3809 8.98926V10.0146ZM30.1572 5.56152V25H24.1367L24.2393 23.3887C23.8291 24.043 23.3213 24.5361 22.7158 24.8682C22.1201 25.1904 21.4316 25.3516 20.6504 25.3516C19.7617 25.3516 19.0244 25.1953 18.4385 24.8828C17.8525 24.5703 17.418 24.1553 17.1348 23.6377C16.8613 23.1201 16.6904 22.583 16.6221 22.0264C16.5537 21.46 16.5195 20.3418 16.5195 18.6719V5.56152H22.4375V18.7891C22.4375 20.3027 22.4814 21.2012 22.5693 21.4844C22.667 21.7676 22.9209 21.9092 23.3311 21.9092C23.7705 21.9092 24.0293 21.7627 24.1074 21.4697C24.1953 21.1768 24.2393 20.2344 24.2393 18.6426V5.56152H30.1572ZM44.3662 11.7725H39.1221V10.7178C39.1221 9.81934 39.0684 9.25293 38.9609 9.01855C38.8633 8.77441 38.6094 8.65234 38.1992 8.65234C37.8672 8.65234 37.6182 8.76465 37.4521 8.98926C37.2861 9.2041 37.2031 9.53125 37.2031 9.9707C37.2031 10.5664 37.2422 11.0059 37.3203 11.2891C37.4082 11.5625 37.6572 11.8652 38.0674 12.1973C38.4873 12.5293 39.3418 13.0127 40.6309 13.6475C42.3496 14.4873 43.4775 15.2783 44.0146 16.0205C44.5518 16.7627 44.8203 17.8418 44.8203 19.2578C44.8203 20.8398 44.6152 22.0361 44.2051 22.8467C43.7949 23.6475 43.1064 24.2676 42.1396 24.707C41.1826 25.1367 40.0254 25.3516 38.668 25.3516C37.1641 25.3516 35.875 25.1172 34.8008 24.6484C33.7363 24.1797 33.0039 23.5449 32.6035 22.7441C32.2031 21.9434 32.0029 20.7324 32.0029 19.1113V18.1738H37.2471V19.4043C37.2471 20.4492 37.3105 21.1279 37.4375 21.4404C37.5742 21.7529 37.8379 21.9092 38.2285 21.9092C38.6484 21.9092 38.9414 21.8066 39.1074 21.6016C39.2734 21.3867 39.3564 20.9424 39.3564 20.2686C39.3564 19.3408 39.249 18.7598 39.0342 18.5254C38.8096 18.291 37.6621 17.5977 35.5918 16.4453C33.8535 15.4688 32.7939 14.585 32.4131 13.7939C32.0322 12.9932 31.8418 12.0459 31.8418 10.9521C31.8418 9.39941 32.0469 8.25684 32.457 7.52441C32.8672 6.78223 33.5605 6.21094 34.5371 5.81055C35.5234 5.41016 36.666 5.20996 37.9648 5.20996C39.2539 5.20996 40.3477 5.37598 41.2461 5.70801C42.1543 6.03027 42.8477 6.45996 43.3262 6.99707C43.8145 7.53418 44.1074 8.03223 44.2051 8.49121C44.3125 8.9502 44.3662 9.66797 44.3662 10.6445V11.7725ZM60.7285 10.0146H54.5615V7.86133C54.5615 6.50391 54.5029 5.6543 54.3857 5.3125C54.2686 4.9707 53.9902 4.7998 53.5508 4.7998C53.1699 4.7998 52.9111 4.94629 52.7744 5.23926C52.6377 5.53223 52.5693 6.28418 52.5693 7.49512V18.877C52.5693 19.9414 52.6377 20.6445 52.7744 20.9863C52.9111 21.3184 53.1846 21.4844 53.5947 21.4844C54.0439 21.4844 54.3467 21.2939 54.5029 20.9131C54.6689 20.5322 54.752 19.79 54.752 18.6865V15.874H53.5068V12.2705H60.7285V25H56.8467L56.2754 23.3008C55.8555 24.0332 55.3232 24.585 54.6787 24.9561C54.0439 25.3174 53.292 25.498 52.4229 25.498C51.3877 25.498 50.416 25.249 49.5078 24.751C48.6094 24.2432 47.9258 23.6182 47.457 22.876C46.9883 22.1338 46.6953 21.3574 46.5781 20.5469C46.4609 19.7266 46.4023 18.501 46.4023 16.8701V9.82422C46.4023 7.55859 46.5244 5.91309 46.7686 4.8877C47.0127 3.8623 47.7109 2.9248 48.8633 2.0752C50.0254 1.21582 51.5244 0.786133 53.3604 0.786133C55.167 0.786133 56.666 1.15723 57.8574 1.89941C59.0488 2.6416 59.8252 3.52539 60.1865 4.55078C60.5479 5.56641 60.7285 7.0459 60.7285 8.98926V10.0146ZM69.0488 1.28418V4.375H62.9551V1.28418H69.0488ZM69.0488 5.56152V25H62.9551V5.56152H69.0488ZM84.6494 1.28418V25H78.7314V23.5938C78.165 24.1797 77.5693 24.6191 76.9443 24.9121C76.3193 25.2051 75.665 25.3516 74.9814 25.3516C74.0635 25.3516 73.2676 25.1123 72.5938 24.6338C71.9199 24.1455 71.4854 23.584 71.29 22.9492C71.1045 22.3145 71.0117 21.2793 71.0117 19.8438V10.7471C71.0117 9.25293 71.1045 8.19336 71.29 7.56836C71.4854 6.94336 71.9248 6.39648 72.6084 5.92773C73.292 5.44922 74.1074 5.20996 75.0547 5.20996C75.7871 5.20996 76.4561 5.3418 77.0615 5.60547C77.6768 5.86914 78.2334 6.26465 78.7314 6.79199V1.28418H84.6494ZM78.7314 10.4541C78.7314 9.74121 78.668 9.2627 78.541 9.01855C78.4238 8.77441 78.1846 8.65234 77.8232 8.65234C77.4717 8.65234 77.2324 8.76465 77.1055 8.98926C76.9883 9.2041 76.9297 9.69238 76.9297 10.4541V19.9756C76.9297 20.7666 76.9883 21.2891 77.1055 21.543C77.2227 21.7871 77.4473 21.9092 77.7793 21.9092C78.1602 21.9092 78.4141 21.7725 78.541 21.499C78.668 21.2158 78.7314 20.5322 78.7314 19.4482V10.4541ZM92.6914 5.56152L92.457 8.11035C93.3164 6.28418 94.5615 5.31738 96.1924 5.20996V12.0508C95.1084 12.0508 94.3125 12.1973 93.8047 12.4902C93.2969 12.7832 92.9844 13.1934 92.8672 13.7207C92.75 14.2383 92.6914 15.4395 92.6914 17.3242V25H86.7734V5.56152H92.6914ZM102.813 13.0908H97.2617V11.7871C97.2617 10.2832 97.4326 9.12598 97.7744 8.31543C98.126 7.49512 98.8242 6.77246 99.8691 6.14746C100.914 5.52246 102.271 5.20996 103.941 5.20996C105.943 5.20996 107.452 5.56641 108.468 6.2793C109.483 6.98242 110.094 7.85156 110.299 8.88672C110.504 9.91211 110.606 12.0312 110.606 15.2441V25H104.85V23.2715C104.488 23.9648 104.02 24.4873 103.443 24.8389C102.877 25.1807 102.198 25.3516 101.407 25.3516C100.372 25.3516 99.4199 25.0635 98.5508 24.4873C97.6914 23.9014 97.2617 22.627 97.2617 20.6641V19.0674C97.2617 17.6123 97.4912 16.6211 97.9502 16.0938C98.4092 15.5664 99.5469 14.9512 101.363 14.248C103.307 13.4863 104.347 12.9736 104.483 12.71C104.62 12.4463 104.688 11.9092 104.688 11.0986C104.688 10.083 104.61 9.42383 104.454 9.12109C104.308 8.80859 104.059 8.65234 103.707 8.65234C103.307 8.65234 103.058 8.78418 102.96 9.04785C102.862 9.30176 102.813 9.9707 102.813 11.0547V13.0908ZM104.688 15.7568C103.741 16.4502 103.189 17.0312 103.033 17.5C102.887 17.9688 102.813 18.6426 102.813 19.5215C102.813 20.5273 102.877 21.1768 103.004 21.4697C103.141 21.7627 103.404 21.9092 103.795 21.9092C104.166 21.9092 104.405 21.7969 104.513 21.5723C104.63 21.3379 104.688 20.7324 104.688 19.7559V15.7568ZM127.218 11.626H121.051V7.49512C121.051 6.29395 120.982 5.54688 120.846 5.25391C120.719 4.95117 120.431 4.7998 119.981 4.7998C119.474 4.7998 119.151 4.98047 119.015 5.3418C118.878 5.70313 118.81 6.48438 118.81 7.68555V18.7012C118.81 19.8535 118.878 20.6055 119.015 20.957C119.151 21.3086 119.459 21.4844 119.938 21.4844C120.396 21.4844 120.694 21.3086 120.831 20.957C120.978 20.6055 121.051 19.7803 121.051 18.4814V15.5078H127.218V16.4307C127.218 18.8818 127.042 20.6201 126.69 21.6455C126.349 22.6709 125.582 23.5693 124.391 24.3408C123.209 25.1123 121.749 25.498 120.011 25.498C118.204 25.498 116.715 25.1709 115.543 24.5166C114.371 23.8623 113.595 22.959 113.214 21.8066C112.833 20.6445 112.643 18.9014 112.643 16.5771V9.64844C112.643 7.93945 112.701 6.66016 112.818 5.81055C112.936 4.95117 113.282 4.12598 113.858 3.33496C114.444 2.54395 115.25 1.92383 116.275 1.47461C117.311 1.01563 118.497 0.786133 119.835 0.786133C121.651 0.786133 123.15 1.1377 124.332 1.84082C125.514 2.54395 126.29 3.42285 126.661 4.47754C127.032 5.52246 127.218 7.15332 127.218 9.37012V11.626ZM135.172 5.56152L134.938 8.11035C135.797 6.28418 137.042 5.31738 138.673 5.20996V12.0508C137.589 12.0508 136.793 12.1973 136.285 12.4902C135.777 12.7832 135.465 13.1934 135.348 13.7207C135.23 14.2383 135.172 15.4395 135.172 17.3242V25H129.254V5.56152H135.172ZM153.409 15.625H145.748V19.8291C145.748 20.708 145.812 21.2744 145.938 21.5283C146.065 21.7822 146.31 21.9092 146.671 21.9092C147.12 21.9092 147.418 21.7432 147.564 21.4111C147.721 21.0693 147.799 20.415 147.799 19.4482V16.8848H153.409V18.3203C153.409 19.5215 153.331 20.4443 153.175 21.0889C153.028 21.7334 152.677 22.4219 152.12 23.1543C151.563 23.8867 150.855 24.4385 149.996 24.8096C149.146 25.1709 148.077 25.3516 146.788 25.3516C145.538 25.3516 144.435 25.1709 143.478 24.8096C142.521 24.4482 141.773 23.9551 141.236 23.3301C140.709 22.6953 140.343 22.002 140.138 21.25C139.933 20.4883 139.83 19.3848 139.83 17.9395V12.2705C139.83 10.5713 140.06 9.2334 140.519 8.25684C140.978 7.27051 141.729 6.51855 142.774 6.00098C143.819 5.47363 145.021 5.20996 146.378 5.20996C148.038 5.20996 149.405 5.52734 150.479 6.16211C151.563 6.78711 152.32 7.62207 152.75 8.66699C153.189 9.70215 153.409 11.1621 153.409 13.0469V15.625ZM147.477 12.4609V11.04C147.477 10.0342 147.423 9.38477 147.315 9.0918C147.208 8.79883 146.988 8.65234 146.656 8.65234C146.246 8.65234 145.992 8.7793 145.895 9.0332C145.797 9.27734 145.748 9.94629 145.748 11.04V12.4609H147.477ZM174.474 5.56152L172.115 25H165.685C165.333 22.627 164.928 19.502 164.469 15.625C164.312 17.3242 164.093 19.043 163.81 20.7812L163.15 25H156.72L154.215 5.56152H159.312C159.352 6.06934 159.781 9.77539 160.602 16.6797C160.66 15.9766 161.1 12.2705 161.92 5.56152H166.827L168.028 16.6797C168.214 13.4375 168.663 9.73145 169.376 5.56152H174.474Z" fill="white"/>
</svg>
