<?xml version="1.0" standalone="no"?>
<!DOCTYPE svg PUBLIC "-//W3C//DTD SVG 20010904//EN"
 "http://www.w3.org/TR/2001/REC-SVG-20010904/DTD/svg10.dtd">
<svg version="1.0" xmlns="http://www.w3.org/2000/svg"
 width="887.000000pt" height="887.000000pt" viewBox="0 0 887.000000 887.000000"
 preserveAspectRatio="xMidYMid meet">
<metadata>
Created by potrace 1.11, written by Peter Selinger 2001-2013
</metadata>
<g transform="translate(0.000000,887.000000) scale(0.100000,-0.100000)"
fill="#000000" stroke="none">
<path d="M4115 8424 c-190 -18 -279 -29 -401 -50 -1286 -218 -2391 -1036
-2971 -2199 -201 -403 -321 -800 -390 -1295 -22 -160 -25 -747 -5 -910 89
-710 317 -1305 715 -1870 452 -643 1097 -1146 1842 -1439 325 -128 635 -206
1020 -258 187 -25 805 -25 985 0 530 74 897 185 1345 407 374 185 638 366 953
653 127 115 302 302 414 442 418 521 695 1125 817 1780 49 264 55 344 56 705
0 362 -5 429 -51 700 -186 1085 -834 2063 -1774 2675 -461 300 -970 504 -1505
601 -248 45 -377 56 -695 59 -173 2 -333 1 -355 -1z m820 -103 c246 -36 417
-71 590 -121 689 -200 1290 -558 1775 -1056 309 -318 524 -620 719 -1011 194
-389 310 -774 378 -1253 25 -182 25 -782 0 -955 -71 -483 -179 -844 -367
-1229 -306 -626 -785 -1173 -1370 -1563 -430 -286 -920 -491 -1420 -593 -315
-64 -430 -74 -825 -75 -293 0 -383 3 -485 18 -408 58 -698 132 -1015 259
-1259 503 -2175 1597 -2435 2908 -56 287 -65 385 -65 755 0 353 3 395 51 675
178 1048 812 2009 1719 2605 316 207 596 343 950 460 281 94 508 145 795 180
191 23 193 23 540 20 263 -3 352 -7 465 -24z"/>
<path d="M4250 8227 c-14 -8 -63 -35 -109 -60 -46 -26 -87 -47 -92 -47 -14 0
-11 -29 11 -110 11 -41 32 -118 46 -170 14 -52 30 -104 35 -115 32 -73 34 -70
-45 -84 -39 -7 -106 -30 -151 -52 -75 -36 -83 -43 -120 -105 -22 -37 -66 -96
-97 -131 -32 -36 -58 -70 -58 -75 0 -6 -16 -31 -36 -55 -38 -46 -60 -99 -93
-227 -29 -112 -30 -302 -1 -384 23 -63 35 -111 54 -217 8 -46 28 -99 58 -155
56 -103 106 -255 129 -390 6 -36 13 -218 15 -405 6 -463 5 -523 -6 -575 -25
-123 -30 -154 -30 -186 0 -29 -4 -34 -27 -39 -16 -3 -47 -10 -71 -15 -60 -14
-72 -13 -72 8 0 10 -18 56 -40 102 -23 46 -52 125 -65 176 -23 87 -23 99 -13
221 12 145 5 378 -12 438 -13 43 -60 128 -116 210 -19 27 -34 58 -34 68 0 11
-40 59 -90 107 -127 125 -173 146 -356 159 -280 21 -350 16 -588 -48 -22 -6
-41 -9 -43 -8 -2 3 27 49 165 260 61 95 82 135 80 155 l-3 27 -130 3 c-71 1
-140 0 -152 -3 -23 -5 -29 -27 -53 -195 -23 -168 -37 -147 -39 63 -1 89 -4
127 -13 127 -47 0 -208 -141 -208 -182 0 -13 15 -45 33 -73 173 -262 174 -265
153 -265 -29 0 -127 -77 -183 -145 -117 -141 -135 -177 -183 -373 l-11 -43
-47 39 c-26 22 -58 52 -71 66 -23 24 -81 38 -81 19 0 -5 13 -45 29 -90 29 -80
52 -223 35 -223 -4 0 -19 11 -33 24 -34 31 -181 112 -221 121 -52 12 -47 -16
22 -107 86 -113 91 -127 133 -403 9 -55 22 -122 30 -150 32 -115 39 -227 26
-381 -10 -110 -10 -165 -2 -223 6 -42 15 -110 21 -152 14 -109 91 -331 132
-379 29 -34 128 -99 203 -134 35 -16 190 -44 290 -52 52 -4 89 0 143 14 l72
20 1 -92 c0 -107 18 -223 48 -321 12 -38 39 -131 61 -205 55 -194 110 -327
171 -418 16 -23 29 -50 29 -58 0 -7 4 -14 9 -14 4 0 30 -32 56 -70 26 -39 73
-92 105 -118 32 -26 59 -52 59 -59 1 -11 73 -73 85 -73 4 0 37 -18 73 -40 36
-21 70 -41 77 -43 7 -3 4 -13 -10 -28 -23 -28 -44 -72 -44 -97 0 -18 -113
-247 -134 -272 -7 -8 -28 -42 -46 -75 -19 -33 -44 -73 -56 -90 -36 -48 -164
-302 -164 -326 0 -19 4 -21 36 -16 20 4 73 24 118 47 45 22 86 40 92 40 5 0
21 12 35 27 61 66 135 106 150 81 4 -7 10 -39 14 -72 8 -71 27 -151 60 -254
13 -40 21 -80 18 -87 -5 -15 18 -45 35 -45 5 0 17 15 26 34 9 19 37 50 64 69
124 92 197 149 204 160 4 6 8 9 10 7 87 -119 126 -165 164 -197 26 -21 55 -45
64 -53 9 -8 26 -20 37 -27 20 -12 21 -10 20 60 -1 66 19 295 43 477 5 41 9
128 10 192 0 121 15 218 34 218 6 0 88 -8 181 -18 120 -12 257 -17 467 -17
l298 0 14 -40 c8 -22 37 -105 65 -185 29 -80 65 -208 81 -285 16 -77 41 -167
56 -200 93 -211 110 -239 133 -212 6 8 22 52 36 98 14 46 33 104 44 129 11 25
26 63 34 85 8 21 18 40 23 42 5 2 56 -45 114 -103 110 -111 176 -155 232 -153
18 0 27 3 21 6 -18 7 -16 110 2 198 8 38 15 89 15 112 0 24 4 43 10 43 15 0
123 -42 145 -56 20 -13 198 -64 223 -64 6 0 12 7 12 16 0 22 -55 129 -88 173
-32 41 -60 87 -160 257 -39 67 -82 134 -96 150 -24 29 -54 106 -58 153 -4 29
4 33 117 66 155 45 317 153 523 347 98 94 250 358 301 526 66 220 70 241 64
338 -3 50 -2 147 2 216 l7 126 61 10 c98 14 296 62 364 87 79 29 250 131 269
160 8 13 31 67 49 120 19 54 40 104 47 112 9 11 12 121 13 426 1 391 7 515 34
627 6 25 11 64 11 88 0 41 34 161 49 172 3 3 22 25 41 50 19 25 45 56 56 70
76 88 130 155 139 169 6 9 18 28 28 43 26 40 21 48 -27 48 -35 0 -57 -9 -112
-46 -38 -25 -80 -58 -94 -73 -31 -34 -99 -76 -108 -66 -4 4 0 12 9 19 33 24
49 84 49 187 0 99 0 99 -25 99 -16 0 -43 -18 -77 -50 -29 -27 -56 -50 -59 -50
-3 0 -9 44 -12 98 -10 155 -72 321 -150 407 -10 11 -25 32 -33 46 -34 66 -146
136 -280 174 -124 37 -123 35 -82 81 19 21 58 76 88 121 32 49 70 93 96 112
59 41 59 67 -1 109 -62 44 -104 43 -130 0 -10 -18 -37 -55 -58 -83 -32 -40
-39 -45 -34 -24 4 15 11 55 16 90 5 35 17 87 25 114 21 66 21 135 1 135 -16 0
-238 -111 -267 -133 -33 -26 -33 -65 0 -131 71 -141 124 -299 106 -316 -5 -4
-43 1 -84 12 -61 16 -99 18 -205 15 -122 -3 -135 -6 -219 -40 -50 -20 -122
-56 -160 -79 -39 -23 -77 -41 -83 -40 -63 13 -267 -234 -308 -371 -8 -27 -19
-55 -24 -61 -6 -6 -21 -51 -35 -100 -34 -116 -36 -275 -6 -387 12 -41 26 -109
32 -151 10 -70 8 -85 -12 -150 -12 -40 -29 -95 -37 -123 -9 -27 -23 -70 -33
-95 -10 -25 -25 -70 -34 -100 -23 -80 -27 -84 -62 -65 -22 11 -63 15 -171 15
l-141 0 -5 63 c-2 34 -10 118 -16 187 -12 132 -10 1040 3 1115 4 22 9 50 11
61 3 12 22 43 44 69 104 125 135 257 135 560 -1 218 -9 256 -93 425 -103 208
-155 277 -258 346 -30 19 -60 46 -69 59 -20 31 -63 45 -137 45 -61 0 -267 29
-279 39 -10 8 198 136 247 151 57 18 115 59 115 81 0 10 -13 33 -28 51 -15 18
-35 45 -45 60 -28 45 -53 40 -157 -31 -52 -35 -104 -73 -116 -83 -11 -10 -26
-18 -32 -18 -21 0 5 39 85 123 95 102 95 113 1 122 -40 4 -97 5 -127 3 l-54
-3 -29 -70 c-16 -38 -32 -92 -35 -120 -6 -50 -28 -115 -39 -115 -7 0 -1 65 23
254 13 109 14 129 2 137 -19 12 -30 11 -59 -4z"/>
</g>
</svg>
